					<svg   viewBox="0 -10 512.00028 512" width="512pt" xmlns="http://www.w3.org/2000/svg"><path d="m482 36.210938v128.789062c0 157.148438-130.535156 287.789062-287.683594 287.789062h-5.683594c-8.292968 0-15 6.707032-15 15 0 8.289063 6.707032 15 15 15h5.683594c173.6875 0 317.683594-144.101562 317.683594-317.789062v-128.789062zm0 0" fill="#acacac"/><path d="m88.039062 4.746094-6.328124-3.164063c-4.660157-2.300781-10.183594-2.078125-14.589844.660157-4.425782 2.738281-7.121094 7.558593-7.121094 12.757812v77.582031c-4.695312-1.667969-9.742188-2.582031-15-2.582031-24.8125 0-45 20.1875-45 45 0 24.816406 20.1875 45 45 45s45-20.183594 45-45v-93.484375c18.839844 15.363281 30 38.40625 30 63.484375 0 8.292969 6.710938 15 15 15 8.292969 0 15-6.707031 15-15 0-42.726562-23.746094-81.136719-61.960938-100.253906zm0 0" fill="#6aa9ff"/><g fill="#ffb64c"><path d="m30 15c0 8.285156-6.714844 15-15 15s-15-6.714844-15-15 6.714844-15 15-15 15 6.714844 15 15zm0 0"/><path d="m212 105c0 8.285156-6.714844 15-15 15s-15-6.714844-15-15 6.714844-15 15-15 15 6.714844 15 15zm0 0"/><path d="m287 30h-15v-15c0-8.289062-6.707031-15-15-15-8.289062 0-15 6.710938-15 15v15h-15c-8.289062 0-15 6.710938-15 15 0 8.292969 6.710938 15 15 15h15v15c0 8.292969 6.710938 15 15 15 8.292969 0 15-6.707031 15-15v-15h15c8.292969 0 15-6.707031 15-15 0-8.289062-6.707031-15-15-15zm0 0"/></g><path d="m405.824219 57.542969c-3.835938 0-7.675781-1.464844-10.605469-4.394531l-21.210938-21.226563c-5.859374-5.855469-5.859374-15.363281 0-21.210937 5.859376-5.855469 15.351563-5.855469 21.210938 0l21.210938 21.226562c5.859374 5.859375 5.859374 15.367188 0 21.210938-2.929688 2.929687-6.765626 4.394531-10.605469 4.394531zm0 0" fill="#444"/><path d="m507.632812 46.765625-95.457031 95.457031-63.640625-63.636718 74.246094-74.246094c4.03125-4.03125 9.96875-5.304688 15.488281-3.605469l63.640625 21.210937c4.664063 1.695313 8.695313 5.726563 9.753906 10.605469 1.0625 5.304688-.425781 10.609375-4.03125 14.214844zm0 0" fill="#ffb64c"/><path d="m507.632812 46.765625-95.457031 95.457031-31.820312-31.816406 96.730469-96.734375 24.820312 8.273437c4.667969 1.695313 8.699219 5.726563 9.757812 10.605469 1.0625 5.304688-.425781 10.609375-4.03125 14.214844zm0 0" fill="#ff7d43"/><path d="m207.753906 472.757812c-16.546875 13.152344-32.667968 18.242188-48.367187 18.242188-40.304688 0-75.09375-34.789062-92.703125-52.394531l-14.425782-14.425781c-24.394531-24.394532-81.246093-81.246094-34.152343-141.066407 22.0625-28.003906 55.15625-44.546875 90.792969-45.820312 16.972656-.425781 29.0625-14.640625 34.367187-27.578125 7.421875-17.183594 19.515625-32.246094 34.789063-43.699219 37.96875-27.789063 70.636718-7.003906 91.855468 10.816406l44.121094 44.125c17.820312 21.214844 38.605469 53.882813 10.820312 91.855469-11.246093 15.484375-26.519531 27.363281-43.699218 34.789062-12.941406 5.300782-27.152344 17.394532-27.578125 34.363282-1.0625 35.851562-17.820313 68.730468-45.820313 90.792968zm0 0" fill="#ffb64c"/><path d="m207.753906 472.757812c-16.546875 13.152344-32.667968 18.242188-48.367187 18.242188-40.304688 0-75.09375-34.789062-92.703125-52.394531l-7.210938-7.214844 232.496094-232.496094 22.0625 22.0625c17.820312 21.214844 38.605469 53.878907 10.816406 91.855469-11.242187 15.484375-26.515625 27.359375-43.699218 34.785156-12.9375 5.304688-27.148438 17.398438-27.578126 34.367188-1.058593 35.851562-17.816406 68.730468-45.816406 90.792968zm0 0" fill="#ff7d43"/><path d="m144.324219 410.179688c-2.96875 2.96875-6.785157 4.242187-10.605469 4.242187s-7.636719-1.273437-10.609375-4.242187l-42.425781-42.425782c-5.9375-5.941406-5.9375-15.273437 0-21.214844 5.941406-5.941406 15.273437-5.941406 21.214844 0l42.425781 42.425782c5.941406 5.941406 5.941406 15.273437 0 21.214844zm0 0" fill="#6e6e6e"/><path d="m207.964844 346.539062c-17.609375 17.605469-46.03125 17.605469-63.640625 0-17.605469-17.609374-17.605469-46.03125 0-63.640624 17.605469-17.609376 46.03125-17.605469 63.640625 0 17.605468 17.605468 17.605468 46.03125 0 63.640624zm0 0" fill="#6e6e6e"/><path d="m207.964844 346.539062c-17.609375 17.605469-46.03125 17.605469-63.640625 0l63.640625-63.640624c17.605468 17.609374 17.605468 46.03125 0 63.640624zm0 0" fill="#444"/><path d="m144.324219 410.179688c-2.96875 2.96875-6.785157 4.242187-10.605469 4.242187s-7.636719-1.273437-10.609375-4.242187l-21.210937-21.214844 21.210937-21.210938 21.214844 21.210938c5.941406 5.941406 5.941406 15.273437 0 21.214844zm0 0" fill="#444"/><path d="m412.175781 142.222656-140.570312 140.675782c-2.972657 2.972656-6.789063 4.246093-10.609375 4.242187-3.816406.003906-7.636719-1.269531-10.605469-4.242187l-42.425781-42.425782c-5.941406-5.9375-5.941406-15.273437 0-21.210937l140.570312-140.675781zm0 0" fill="#6e6e6e"/><path d="m412.175781 142.222656-140.570312 140.675782c-2.972657 2.972656-6.789063 4.246093-10.609375 4.242187-3.816406.003906-7.636719-1.269531-10.605469-4.242187l-21.214844-21.210938 151.179688-151.28125zm0 0" fill="#444"/><path d="m437.632812 159.195312c-2.972656 2.96875-6.789062 4.242188-10.609374 4.242188-3.816407 0-7.636719-1.273438-10.605469-4.242188l-84.851563-84.851562c-5.941406-5.941406-5.941406-15.273438 0-21.214844 5.9375-5.9375 15.273438-5.9375 21.210938 0l84.855468 84.855469c5.9375 5.9375 5.9375 15.273437 0 21.210937zm0 0" fill="#444"/><path d="m416.417969 159.195312-42.425781-42.425781 21.214843-21.214843 42.425781 42.429687c5.9375 5.9375 5.9375 15.273437 0 21.210937-2.972656 2.96875-6.789062 4.242188-10.609374 4.242188-3.816407 0-7.636719-1.273438-10.605469-4.242188zm0 0" fill="#2e2e2e"/></svg>
