<svg  version="1.1" id="Layer_1" xmlns="http://www.w3.org/2000/svg" xmlns:xlink="http://www.w3.org/1999/xlink" x="0px" y="0px" viewBox="0 0 512 512" style="enable-background:new 0 0 512 512;" xml:space="preserve"> <rect x="46.497" y="230.347" style="fill:#CCCCCC;" width="119.716" height="273.637"/> <rect x="140.56" y="230.347" style="fill:#B2B2B2;" width="25.653" height="273.637"/> <rect x="345.787" y="187.591" style="fill:#CCCCCC;" width="119.716" height="316.392"/> <rect x="345.787" y="187.591" style="fill:#B2B2B2;" width="25.653" height="316.392"/> <rect x="234.622" y="59.324" style="fill:#6DDAE1;" width="42.756" height="42.756"/> <rect x="191.866" y="93.528" style="fill:#FF8C78;" width="128.267" height="51.307"/> <rect x="191.866" y="110.63" style="fill:#DF7A6E;" width="128.267" height="34.205"/> <rect x="166.213" y="127.733" style="fill:#6DDAE1;" width="179.574" height="376.251"/> <rect x="166.213" y="469.779" style="fill:#4FC4D3;" width="179.574" height="34.205"/> <path style="fill:#C4DF64;" d="M72.15,452.676c0-14.168,11.485-59.858,25.653-59.858s25.653,45.69,25.653,59.858 s-11.485,25.653-25.653,25.653S72.15,466.845,72.15,452.676z"/> <path style="fill:#96CA63;" d="M114.906,461.228c-14.168,0-25.653-11.485-25.653-25.653c0-8.43,4.067-28.022,10.346-42.507 c-0.593-0.16-1.192-0.249-1.795-0.249c-14.168,0-25.653,45.69-25.653,59.858s11.485,25.653,25.653,25.653 c11.577,0,21.359-7.67,24.551-18.204C119.997,460.84,117.497,461.228,114.906,461.228z"/> <path style="fill:#C4DF64;" d="M140.56,452.676c0-14.168,11.485-59.858,25.653-59.858c14.168,0,25.653,45.69,25.653,59.858 s-11.485,25.653-25.653,25.653C152.045,478.33,140.56,466.845,140.56,452.676z"/> <path style="fill:#96CA63;" d="M183.315,461.228c-14.168,0-25.653-11.485-25.653-25.653c0-8.43,4.067-28.022,10.346-42.507 c-0.593-0.16-1.192-0.249-1.795-0.249c-14.168,0-25.653,45.69-25.653,59.858s11.485,25.653,25.653,25.653 c11.577,0,21.359-7.67,24.551-18.204C188.406,460.84,185.906,461.228,183.315,461.228z"/> <path style="fill:#C4DF64;" d="M320.134,452.676c0-14.168,11.485-59.858,25.653-59.858c14.168,0,25.653,45.69,25.653,59.858 s-11.485,25.653-25.653,25.653C331.619,478.33,320.134,466.845,320.134,452.676z"/> <path style="fill:#96CA63;" d="M362.889,461.228c-14.168,0-25.653-11.485-25.653-25.653c0-8.43,4.067-28.022,10.346-42.507 c-0.593-0.16-1.192-0.249-1.795-0.249c-14.168,0-25.653,45.69-25.653,59.858s11.485,25.653,25.653,25.653 c11.577,0,21.359-7.67,24.551-18.204C367.98,460.84,365.48,461.228,362.889,461.228z"/> <path style="fill:#C4DF64;" d="M388.543,452.676c0-14.168,11.485-59.858,25.653-59.858s25.653,45.69,25.653,59.858 s-11.485,25.653-25.653,25.653S388.543,466.845,388.543,452.676z"/> <path style="fill:#96CA63;" d="M431.299,461.228c-14.168,0-25.653-11.485-25.653-25.653c0-8.43,4.067-28.022,10.346-42.507 c-0.593-0.16-1.192-0.249-1.795-0.249c-14.168,0-25.653,45.69-25.653,59.858s11.485,25.653,25.653,25.653 c11.577,0,21.359-7.67,24.551-18.204C436.39,460.84,433.89,461.228,431.299,461.228z"/> <path d="M499.708,495.967H473.52v-26.188c0-4.427-3.588-8.017-8.017-8.017s-8.017,3.589-8.017,8.017v26.188h-35.273v-10.592 c14.707-3.606,25.653-16.895,25.653-32.699c0-8.841-3.351-24.781-7.969-37.903c-7.096-20.168-15.503-29.972-25.702-29.972 s-18.605,9.804-25.702,29.972c-4.618,13.122-7.969,29.062-7.969,37.903c0,15.804,10.947,29.091,25.653,32.699v10.592h-52.376 v-10.592c14.707-3.606,25.653-16.895,25.653-32.699c0-8.841-3.351-24.781-7.969-37.903c-5.145-14.621-10.979-23.791-17.685-27.731 V195.608h103.683v231.415c0,4.427,3.588,8.017,8.017,8.017s8.017-3.589,8.017-8.017V187.591c0-4.427-3.588-8.017-8.017-8.017 H353.804v-51.841c0-4.427-3.588-8.017-8.017-8.017H328.15V93.528c0-4.427-3.588-8.017-8.017-8.017h-34.739V59.324 c0-4.427-3.588-8.017-8.017-8.017h-13.361V8.017C264.017,3.589,260.428,0,256,0c-4.428,0-8.017,3.589-8.017,8.017v43.29h-13.361 c-4.428,0-8.017,3.589-8.017,8.017v26.188h-34.739c-4.428,0-8.017,3.589-8.017,8.017v26.188h-17.637 c-4.428,0-8.017,3.589-8.017,8.017v94.597H46.497c-4.428,0-8.017,3.589-8.017,8.017v34.205c0,4.427,3.588,8.017,8.017,8.017 s8.017-3.589,8.017-8.017v-26.188h103.683v148.679c-6.705,3.94-12.54,13.11-17.685,27.731c-4.618,13.122-7.969,29.062-7.969,37.903 c0,15.804,10.947,29.091,25.653,32.699v10.592H105.82v-10.592c14.707-3.606,25.653-16.895,25.653-32.699 c0-8.841-3.351-24.781-7.969-37.903c-7.096-20.168-15.503-29.972-25.702-29.972s-18.605,9.804-25.702,29.972 c-4.618,13.122-7.969,29.062-7.969,37.903c0,15.804,10.947,29.091,25.653,32.699v10.592H54.514v-188.66 c0-4.427-3.588-8.017-8.017-8.017s-8.017,3.589-8.017,8.017v188.66H12.292c-4.428,0-8.017,3.589-8.017,8.017 c0,4.427,3.588,8.017,8.017,8.017h487.415c4.428,0,8.017-3.589,8.017-8.017C507.724,499.556,504.136,495.967,499.708,495.967z M396.56,452.676c0-5.612,2.376-18.561,6.352-30.516c4.968-14.939,9.617-20.206,11.284-21.212 c1.667,1.006,6.315,6.273,11.284,21.212c3.976,11.955,6.352,24.904,6.352,30.516c0,9.725-7.912,17.637-17.637,17.637 S396.56,462.401,396.56,452.676z M80.167,452.676c0-5.612,2.376-18.561,6.352-30.516c4.968-14.939,9.617-20.206,11.284-21.212 c1.667,1.006,6.315,6.273,11.284,21.212c3.976,11.955,6.352,24.904,6.352,30.516c0,9.725-7.912,17.637-17.637,17.637 S80.167,462.401,80.167,452.676z M363.424,452.676c0,9.725-7.912,17.637-17.637,17.637c-9.725,0-17.637-7.912-17.637-17.637 c0-5.612,2.376-18.561,6.352-30.516c4.968-14.939,9.617-20.206,11.284-21.212c1.667,1.006,6.315,6.273,11.284,21.212 C361.048,434.115,363.424,447.065,363.424,452.676z M242.639,67.34h26.722v18.171h-26.722V67.34z M199.883,101.545h112.234v18.171 H199.883V101.545z M148.576,452.676c0-5.612,2.376-18.561,6.352-30.516c4.968-14.939,9.617-20.206,11.284-21.212 c1.667,1.006,6.315,6.273,11.284,21.212c3.976,11.955,6.352,24.904,6.352,30.516c0,9.725-7.912,17.637-17.637,17.637 C156.488,470.313,148.576,462.401,148.576,452.676z M174.23,485.375c14.707-3.606,25.653-16.895,25.653-32.699 c0-8.841-3.351-24.781-7.969-37.903c-5.145-14.621-10.979-23.791-17.685-27.731V135.749H337.77v251.293 c-6.705,3.94-12.54,13.11-17.685,27.731c-4.618,13.122-7.969,29.062-7.969,37.903c0,15.804,10.947,29.091,25.653,32.699v10.592 h-43.822V401.37c0-4.427-3.588-8.017-8.017-8.017s-8.017,3.589-8.017,8.017v94.597h-13.896V401.37c0-4.427-3.588-8.017-8.017-8.017 s-8.017,3.589-8.017,8.017v94.597H234.09V401.37c0-4.427-3.588-8.017-8.017-8.017c-4.428,0-8.017,3.589-8.017,8.017v94.597H174.23 V485.375z"/> <path d="M72.15,315.324c4.428,0,8.017-3.589,8.017-8.017V256c0-4.427-3.588-8.017-8.017-8.017s-8.017,3.589-8.017,8.017v51.307 C64.134,311.734,67.722,315.324,72.15,315.324z"/> <path d="M106.355,315.324c4.428,0,8.017-3.589,8.017-8.017V256c0-4.427-3.588-8.017-8.017-8.017c-4.428,0-8.017,3.589-8.017,8.017 v51.307C98.338,311.734,101.926,315.324,106.355,315.324z"/> <path d="M140.56,315.324c4.428,0,8.017-3.589,8.017-8.017V256c0-4.427-3.588-8.017-8.017-8.017c-4.428,0-8.017,3.589-8.017,8.017 v51.307C132.543,311.734,136.131,315.324,140.56,315.324z"/> <path d="M64.134,367.165c0,4.427,3.588,8.017,8.017,8.017s8.017-3.589,8.017-8.017v-25.653c0-4.427-3.588-8.017-8.017-8.017 s-8.017,3.589-8.017,8.017V367.165z"/> <path d="M98.338,367.165c0,4.427,3.588,8.017,8.017,8.017c4.428,0,8.017-3.589,8.017-8.017v-25.653c0-4.427-3.588-8.017-8.017-8.017 c-4.428,0-8.017,3.589-8.017,8.017V367.165z"/> <path d="M132.543,367.165c0,4.427,3.588,8.017,8.017,8.017c4.428,0,8.017-3.589,8.017-8.017v-25.653 c0-4.427-3.588-8.017-8.017-8.017c-4.428,0-8.017,3.589-8.017,8.017V367.165z"/> <path d="M371.441,333.495c-4.428,0-8.017,3.589-8.017,8.017v25.653c0,4.427,3.588,8.017,8.017,8.017 c4.428,0,8.017-3.589,8.017-8.017v-25.653C379.457,337.084,375.869,333.495,371.441,333.495z"/> <path d="M405.645,333.495c-4.428,0-8.017,3.589-8.017,8.017v25.653c0,4.427,3.588,8.017,8.017,8.017s8.017-3.589,8.017-8.017 v-25.653C413.662,337.084,410.074,333.495,405.645,333.495z"/> <path d="M439.85,333.495c-4.428,0-8.017,3.589-8.017,8.017v25.653c0,4.427,3.588,8.017,8.017,8.017s8.017-3.589,8.017-8.017v-25.653 C447.866,337.084,444.278,333.495,439.85,333.495z"/> <path d="M379.457,213.244c0-4.427-3.588-8.017-8.017-8.017c-4.428,0-8.017,3.589-8.017,8.017v8.551c0,4.427,3.588,8.017,8.017,8.017 c4.428,0,8.017-3.589,8.017-8.017V213.244z"/> <path d="M413.662,213.244c0-4.427-3.588-8.017-8.017-8.017s-8.017,3.589-8.017,8.017v8.551c0,4.427,3.588,8.017,8.017,8.017 s8.017-3.589,8.017-8.017V213.244z"/> <path d="M447.866,213.244c0-4.427-3.588-8.017-8.017-8.017s-8.017,3.589-8.017,8.017v8.551c0,4.427,3.588,8.017,8.017,8.017 s8.017-3.589,8.017-8.017V213.244z"/> <path d="M379.457,256c0-4.427-3.588-8.017-8.017-8.017c-4.428,0-8.017,3.589-8.017,8.017v8.551c0,4.427,3.588,8.017,8.017,8.017 c4.428,0,8.017-3.589,8.017-8.017V256z"/> <path d="M413.662,256c0-4.427-3.588-8.017-8.017-8.017s-8.017,3.589-8.017,8.017v8.551c0,4.427,3.588,8.017,8.017,8.017 s8.017-3.589,8.017-8.017V256z"/> <path d="M447.866,256c0-4.427-3.588-8.017-8.017-8.017s-8.017,3.589-8.017,8.017v8.551c0,4.427,3.588,8.017,8.017,8.017 s8.017-3.589,8.017-8.017V256z"/> <path d="M379.457,298.756c0-4.427-3.588-8.017-8.017-8.017c-4.428,0-8.017,3.589-8.017,8.017v8.551c0,4.427,3.588,8.017,8.017,8.017 c4.428,0,8.017-3.589,8.017-8.017V298.756z"/> <path d="M413.662,298.756c0-4.427-3.588-8.017-8.017-8.017s-8.017,3.589-8.017,8.017v8.551c0,4.427,3.588,8.017,8.017,8.017 s8.017-3.589,8.017-8.017V298.756z"/> <path d="M447.866,298.756c0-4.427-3.588-8.017-8.017-8.017s-8.017,3.589-8.017,8.017v8.551c0,4.427,3.588,8.017,8.017,8.017 s8.017-3.589,8.017-8.017V298.756z"/> <path d="M256,375.182c4.428,0,8.017-3.589,8.017-8.017v-8.551c0-4.427-3.588-8.017-8.017-8.017c-4.428,0-8.017,3.589-8.017,8.017 v8.551C247.983,371.592,251.572,375.182,256,375.182z"/> <path d="M226.071,375.182c4.428,0,8.017-3.589,8.017-8.017v-8.551c0-4.427-3.588-8.017-8.017-8.017s-8.017,3.589-8.017,8.017v8.551 C218.054,371.592,221.643,375.182,226.071,375.182z"/> <path d="M285.929,375.182c4.428,0,8.017-3.589,8.017-8.017v-8.551c0-4.427-3.588-8.017-8.017-8.017s-8.017,3.589-8.017,8.017v8.551 C277.912,371.592,281.501,375.182,285.929,375.182z"/> <path d="M191.866,350.597c-4.428,0-8.017,3.589-8.017,8.017v8.551c0,4.427,3.588,8.017,8.017,8.017s8.017-3.589,8.017-8.017v-8.551 C199.883,354.186,196.295,350.597,191.866,350.597z"/> <path d="M320.134,375.182c4.428,0,8.017-3.589,8.017-8.017v-8.551c0-4.427-3.588-8.017-8.017-8.017 c-4.428,0-8.017,3.589-8.017,8.017v8.551C312.117,371.592,315.705,375.182,320.134,375.182z"/> <path d="M256.001,191.153c4.428,0,8.017-3.589,8.017-8.017v-26.722c0-4.427-3.588-8.017-8.017-8.017 c-4.428,0-8.017,3.589-8.017,8.017v26.722C247.984,187.564,251.573,191.153,256.001,191.153z"/> <path d="M226.072,191.153c4.428,0,8.017-3.589,8.017-8.017v-26.722c0-4.427-3.588-8.017-8.017-8.017 c-4.428,0-8.017,3.589-8.017,8.017v26.722C218.055,187.564,221.644,191.153,226.072,191.153z"/> <path d="M285.93,191.153c4.428,0,8.017-3.589,8.017-8.017v-26.722c0-4.427-3.588-8.017-8.017-8.017 c-4.428,0-8.017,3.589-8.017,8.017v26.722C277.913,187.564,281.502,191.153,285.93,191.153z"/> <path d="M191.867,191.153c4.428,0,8.017-3.589,8.017-8.017v-26.722c0-4.427-3.588-8.017-8.017-8.017 c-4.428,0-8.017,3.589-8.017,8.017v26.722C183.851,187.564,187.439,191.153,191.867,191.153z"/> <path d="M320.135,191.153c4.428,0,8.017-3.589,8.017-8.017v-26.722c0-4.427-3.588-8.017-8.017-8.017s-8.017,3.589-8.017,8.017 v26.722C312.118,187.564,315.706,191.153,320.135,191.153z"/> <path d="M256,229.812c4.428,0,8.017-3.589,8.017-8.017v-8.551c0-4.427-3.588-8.017-8.017-8.017c-4.428,0-8.017,3.589-8.017,8.017 v8.551C247.983,226.223,251.572,229.812,256,229.812z"/> <path d="M226.071,229.812c4.428,0,8.017-3.589,8.017-8.017v-8.551c0-4.427-3.588-8.017-8.017-8.017s-8.017,3.589-8.017,8.017v8.551 C218.054,226.223,221.643,229.812,226.071,229.812z"/> <path d="M285.929,229.812c4.428,0,8.017-3.589,8.017-8.017v-8.551c0-4.427-3.588-8.017-8.017-8.017s-8.017,3.589-8.017,8.017v8.551 C277.912,226.223,281.501,229.812,285.929,229.812z"/> <path d="M191.866,229.812c4.428,0,8.017-3.589,8.017-8.017v-8.551c0-4.427-3.588-8.017-8.017-8.017s-8.017,3.589-8.017,8.017v8.551 C183.85,226.223,187.438,229.812,191.866,229.812z"/> <path d="M320.134,229.812c4.428,0,8.017-3.589,8.017-8.017v-8.551c0-4.427-3.588-8.017-8.017-8.017 c-4.428,0-8.017,3.589-8.017,8.017v8.551C312.117,226.223,315.705,229.812,320.134,229.812z"/> <path d="M256.002,247.983c-4.428,0-8.017,3.589-8.017,8.017v68.405c0,4.427,3.588,8.017,8.017,8.017 c4.428,0,8.017-3.589,8.017-8.017V256C264.019,251.573,260.431,247.983,256.002,247.983z"/> <path d="M226.073,247.983c-4.428,0-8.017,3.589-8.017,8.017v68.405c0,4.427,3.588,8.017,8.017,8.017s8.017-3.589,8.017-8.017V256 C234.09,251.573,230.502,247.983,226.073,247.983z"/> <path d="M285.931,247.983c-4.428,0-8.017,3.589-8.017,8.017v68.405c0,4.427,3.588,8.017,8.017,8.017s8.017-3.589,8.017-8.017V256 C293.948,251.573,290.36,247.983,285.931,247.983z"/> <path d="M191.869,247.983c-4.428,0-8.017,3.589-8.017,8.017v68.405c0,4.427,3.588,8.017,8.017,8.017s8.017-3.589,8.017-8.017V256 C199.885,251.573,196.297,247.983,191.869,247.983z"/> <path d="M320.136,247.983c-4.428,0-8.017,3.589-8.017,8.017v68.405c0,4.427,3.588,8.017,8.017,8.017s8.017-3.589,8.017-8.017V256 C328.152,251.573,324.564,247.983,320.136,247.983z"/> <g> </g> <g> </g> <g> </g> <g> </g> <g> </g> <g> </g> <g> </g> <g> </g> <g> </g> <g> </g> <g> </g> <g> </g> <g> </g> <g> </g> <g> </g> </svg>