<svg  xmlns="http://www.w3.org/2000/svg" xmlns:xlink="http://www.w3.org/1999/xlink" version="1.1" id="Capa_1" x="0px" y="0px" viewBox="0 0 512 512" style="enable-background:new 0 0 512 512;" xml:space="preserve" width="512px" height="512px" class=""><g><g> <circle style="fill:#A4C2F7;" cx="256" cy="256" r="247.467" data-original="#A4C2F7" class=""/> <ellipse style="fill:#E3E7F2;" cx="256" cy="256" rx="221.867" ry="247.467" data-original="#E3E7F2" class=""/> <path style="fill:#FFFFFF;" d="M34.133,256C34.133,119.327,133.467,8.533,256,8.533C119.328,8.533,8.533,119.328,8.533,256   S119.328,503.467,256,503.467C133.467,503.467,34.133,392.672,34.133,256z" data-original="#FFFFFF"/> <path style="fill:#E3E7F2;" d="M460.221,395.742c-5.743-55.164-52.238-97.072-107.7-97.075h-50.741   c-6.432,0-11.646-5.214-11.646-11.646v-5.506c0.072-4.953,3.222-9.337,7.893-10.985c49.53-18.622,83.439-99.872,76.553-157.298   c-6.924-54.6-50.151-97.464-104.807-103.927c-4.35-0.483-8.723-0.734-13.099-0.754l-0.407-0.01   c-31.73-0.071-62.184,12.483-84.646,34.894C149.157,65.844,136.534,96.27,136.533,128c0,51.404,32.488,125.905,78.036,142.752   c4.454,1.744,7.36,6.065,7.297,10.848v5.421c0,6.432-5.214,11.646-11.646,11.646h-50.741   c-55.462,0.003-101.957,41.911-107.7,97.075C97.9,463.156,174.319,503.466,256,503.466S414.1,463.156,460.221,395.742z" data-original="#E3E7F2" class=""/> <path style="fill:#A4C2F7;" d="M352.521,298.667h-36.787L256,366.933l-68.267-68.267h-28.254   c-55.462,0.003-101.957,41.911-107.7,97.075C97.9,463.156,174.319,503.467,256,503.467s158.1-40.31,204.221-107.725   C454.478,340.578,407.983,298.67,352.521,298.667z" data-original="#A4C2F7" class=""/> <g> <path style="fill:#000000" d="M128,476.367c-2.264,0.001-4.435-0.897-6.035-2.498c-1.601-1.601-2.499-3.772-2.498-6.035V409.6    c0-4.713,3.821-8.533,8.533-8.533c4.713,0,8.533,3.821,8.533,8.533v58.233c0.001,2.264-0.897,4.435-2.498,6.035    C132.435,475.469,130.264,476.368,128,476.367L128,476.367z" data-original="#428DFF" class="active-path" data-old_color="#428DFF"/> <path style="fill:#000000" d="M384,476.342c-2.264,0.001-4.435-0.897-6.035-2.498c-1.601-1.601-2.499-3.772-2.498-6.035V409.6    c0-4.713,3.821-8.533,8.533-8.533s8.533,3.821,8.533,8.533v58.208c0.001,2.264-0.897,4.435-2.498,6.035    C388.435,475.444,386.264,476.343,384,476.342L384,476.342z" data-original="#428DFF" class="active-path" data-old_color="#428DFF"/> <path style="fill:#000000" d="M256,375.467c-2.264,0.003-4.435-0.897-6.033-2.5L181.7,304.7c-2.441-2.44-3.171-6.11-1.85-9.299    c1.321-3.189,4.432-5.268,7.883-5.268h22.483c4.713,0,8.533,3.82,8.533,8.533s-3.82,8.533-8.533,8.533h-1.883L256,354.867    l47.667-47.667h-1.883c-4.713,0-8.533-3.82-8.533-8.533s3.821-8.533,8.533-8.533h22.483c3.451,0,6.563,2.079,7.883,5.268    c1.321,3.189,0.59,6.859-1.85,9.299l-68.267,68.267C260.435,374.569,258.264,375.469,256,375.467L256,375.467z" data-original="#428DFF" class="active-path" data-old_color="#428DFF"/> <path style="fill:#000000" d="M256,512C114.615,512,0,397.385,0,256S114.615,0,256,0s256,114.615,256,256    C511.84,397.319,397.319,511.84,256,512z M256,17.067C124.041,17.067,17.067,124.041,17.067,256S124.041,494.933,256,494.933    S494.933,387.959,494.933,256C494.785,124.102,387.898,17.215,256,17.067z" data-original="#428DFF" class="active-path" data-old_color="#428DFF"/> <path style="fill:#000000" d="M256,512c-84.49-0.022-163.532-41.714-211.258-111.433c-1.14-1.67-1.654-3.689-1.45-5.7    c6.018-59.605,56.284-104.914,116.192-104.733h50.733c1.72-0.003,3.113-1.397,3.117-3.117V281.6    c0.052-1.213-0.632-2.338-1.733-2.85C163.758,261.058,128,184.567,128,128c0-33.947,13.485-66.504,37.49-90.507    S222.053,0.006,256,0.009h0.283c4.828,0.015,9.651,0.288,14.45,0.817c58.572,6.944,104.892,52.879,112.325,111.391    c7.183,59.942-27.083,145.642-82.033,166.3c-1.325,0.424-2.259,1.612-2.358,3v5.5c0.003,1.72,1.397,3.113,3.117,3.117h50.733    c59.907-0.181,110.174,45.129,116.192,104.733c0.204,2.012-0.31,4.03-1.45,5.7C419.532,470.286,340.49,511.979,256,512z     M60.633,393.525C105.375,457.103,178.257,494.933,256,494.933s150.625-37.83,195.367-101.408    c-6.573-49.528-48.888-86.481-98.85-86.325h-50.733c-11.141-0.016-20.168-9.043-20.183-20.183v-5.5    c0.04-8.519,5.405-16.102,13.425-18.975c45.792-17.217,77.358-95.933,71.083-148.292c-6.432-50.677-46.554-90.458-97.283-96.458    c-4.051-0.455-8.124-0.691-12.2-0.708h-0.284c-29.479-0.094-57.782,11.55-78.66,32.361S145.068,98.521,145.067,128    c0,49.917,31.65,119.658,72.458,134.75c7.796,2.992,12.924,10.5,12.875,18.85v5.417c-0.016,11.14-9.043,20.168-20.183,20.183    h-50.733C109.521,307.044,67.207,343.997,60.633,393.525z" data-original="#428DFF" class="active-path" data-old_color="#428DFF"/> </g> <path style="fill:#A4C2F7;" d="M292.421,65.519c32.05,8.713,60.377,27.656,80.671,53.948c-0.139-1.887-0.2-3.817-0.421-5.658   c-6.924-54.6-50.151-97.463-104.807-103.927c-4.35-0.482-8.722-0.734-13.099-0.754l-0.408-0.01   c-58.07-0.102-107.793,41.587-117.823,98.784l0.033,0.05c1.525,2.153,52.037-20.81,76.294-10.066   c14.812,6.541,31.645,6.79,46.644,0.688C274.503,92.472,286.382,80.543,292.421,65.519L292.421,65.519z" data-original="#A4C2F7" class=""/> <path style="fill:#000000" d="M373.092,128c-2.698-0.002-5.237-1.278-6.85-3.442C348.639,101.663,324.49,84.661,297,75.808   c-16.966,31.249-55.076,44.246-87.6,29.875c-14.642-6.483-44.933,3.1-59.5,7.717c-11.167,3.533-16.267,5.15-20.292-0.517   c-1.329-1.869-1.862-4.188-1.483-6.45C138.731,45.177,191.932,0.475,254.1,0.583h0.275c4.822,0.019,9.64,0.292,14.434,0.817   c58.575,6.941,104.899,52.877,112.333,111.392c0.167,1.383,0.258,2.825,0.341,4.267l0.117,1.766   c0.176,2.367-0.641,4.701-2.255,6.441C377.731,127.007,375.465,127.997,373.092,128z M254.458,17.658   c-48.873-0.209-92.098,31.659-106.35,78.408c18.392-5.767,48.883-14.55,68.208-5.983c12.696,5.602,27.122,5.812,39.975,0.581   c12.853-5.231,23.033-15.455,28.208-28.331c1.623-4.017,5.996-6.184,10.175-5.042c23.641,6.522,45.528,18.237,64.066,34.292   c-14.225-39.86-49.798-68.224-91.825-73.217c-4.051-0.451-8.124-0.687-12.2-0.708H254.458z" data-original="#428DFF" class="active-path" data-old_color="#428DFF"/> </g></g> </svg>